<svg width="600" height="100" xmlns="http://www.w3.org/2000/svg">

 <g>
  <title>background</title>
  <rect fill="none" id="canvas_background" height="102" width="602" y="-1" x="-1"/>
 </g>
 <g>
  <title>Layer 1</title>
  <path stroke="null" id="svg_1" d="m83.31089,15.077l-0.78141,6.47451c-0.22326,1.8977 -1.45118,2.34422 -3.46051,2.34422l-20.20494,0l0,63.07067c0,2.12096 -0.44652,2.56748 -2.34422,2.56748l-9.8234,0c-2.00933,0 -2.34422,-0.44652 -2.34422,-2.45585l0,-63.1823l-20.87472,0c-1.8977,0 -2.56748,-0.78141 -2.56748,-2.67911l0,-6.58614c0,-1.67444 0.78141,-2.34422 2.45585,-2.34422l56.48453,0c2.90237,0 3.68377,0.89304 3.46051,2.79074zm44.59598,20.76309c0,0.33489 0,0.66978 -0.11163,1.00467l-1.22792,7.92569c-0.11163,1.00467 -0.66978,1.45118 -1.56281,1.45118l-0.44652,0c-0.89304,-0.22326 -2.00933,-0.33489 -3.014,-0.33489c-3.7954,0 -7.92569,2.00933 -10.71643,5.35822l0,35.49818c0,1.78607 -0.78141,2.79074 -2.67911,2.79074l-8.14895,0c-1.78607,0 -2.67911,-0.89304 -2.67911,-2.79074l0,-34.8284l0,-13.73043c0,-2.23259 1.11629,-2.79074 2.79074,-2.79074l7.14429,0c1.78607,0 2.79074,0.55815 2.79074,2.12096l0.11163,3.57214c3.46051,-4.35355 7.25592,-7.14429 13.50717,-7.14429c0.89304,0 2.12096,0.22326 3.12563,0.44652c0.78141,0.22326 1.11629,0.55815 1.11629,1.45118zm67.14514,51.57283c0,1.33955 -0.89304,2.12096 -2.23259,2.12096l-5.35822,0c-5.80473,0 -8.37221,-2.79074 -9.15362,-6.58614l-0.22326,0c-2.79074,4.13029 -10.04665,7.92569 -16.18628,7.92569c-15.73976,0 -22.88405,-12.94902 -22.88405,-27.46086c0,-19.3119 11.60947,-29.47019 24.11197,-29.47019c5.91636,0 11.49784,2.67911 14.28858,6.47451l0.22326,-3.014c0.11163,-1.22792 1.00467,-2.00933 2.34422,-2.00933l7.81406,0c1.45118,0 2.34422,0.78141 2.34422,2.45585l0,38.73544c0,1.56281 0.22326,2.67911 0.66978,3.23726c0.33489,0.33489 0.78141,0.44652 1.33955,0.44652l0.89304,0c1.33955,0 2.00933,0.44652 2.00933,1.8977l0,5.24659zm-18.41887,-15.18161l0,-21.54449c-2.23259,-3.23726 -6.8094,-5.6931 -11.05132,-5.6931c-6.8094,0 -12.61413,5.80473 -12.61413,17.52583c0,9.37688 3.57214,17.30257 11.83273,17.30257c5.46985,0 10.15828,-4.13029 11.83273,-7.59081zm82.8849,14.51183c0,1.8977 -1.11629,2.79074 -2.45585,2.79074l-7.25592,0c-1.78607,0 -2.56748,-0.89304 -2.67911,-2.23259l-0.22326,-3.014c-3.12563,3.57214 -9.37688,6.58614 -15.18161,6.58614c-16.18628,0 -23.55382,-12.83739 -23.55382,-27.79575c0,-15.62813 8.7071,-29.24693 24.44686,-29.24693c5.02333,0 10.26991,2.00933 13.39554,5.24659l0,-25.11664c0,-2.00933 0.55815,-2.79074 2.34422,-3.014l8.26058,-1.11629c0.11163,0 1.00467,-0.11163 1.11629,-0.11163c1.33955,0 1.78607,0.55815 1.78607,2.23259l0,74.79176zm-13.50717,-12.39087l0,-24.2236c-2.23259,-3.014 -6.47451,-5.46985 -10.71643,-5.46985c-9.04199,0 -13.06065,8.48384 -13.06065,17.63746s3.34888,17.63746 12.39087,17.63746c4.13029,0 9.15362,-2.79074 11.38621,-5.58147zm81.54535,-12.05599c0,2.67911 -0.89304,3.23726 -3.68377,3.23726l-32.70744,0c0.89304,8.59547 7.14429,14.51183 15.96302,14.51183c4.68844,0 9.60014,-1.11629 13.73043,-2.67911c0.44652,-0.11163 0.78141,-0.33489 1.22792,-0.33489c0.78141,0 1.33955,0.44652 1.56281,1.33955l1.56281,5.6931c0.11163,0.55815 0.22326,1.00467 0.22326,1.33955c0,0.78141 -0.44652,1.33955 -1.78607,1.8977c-5.46985,2.45585 -12.94902,3.57214 -18.75376,3.57214c-17.52583,0 -27.90737,-11.16295 -27.90737,-28.57715c0,-16.74442 11.05132,-28.35389 27.68412,-28.35389c6.8094,0 12.39087,2.56748 16.29791,6.69777c5.13496,5.35822 6.58614,12.39087 6.58614,19.98168l0,1.67444zm-13.28391,-5.58147l0,-1.22792c-0.22326,-5.80473 -3.57214,-11.16295 -10.38154,-11.16295c-7.25592,0 -11.60947,5.80473 -12.5025,12.39087l22.88405,0zm82.66164,30.69811c0,1.33955 -0.89304,2.12096 -2.23259,2.12096l-5.35822,0c-5.80473,0 -8.37221,-2.79074 -9.15362,-6.58614l-0.22326,0c-2.79074,4.13029 -10.04665,7.92569 -16.18628,7.92569c-15.73976,0 -22.88405,-12.94902 -22.88405,-27.46086c0,-19.3119 11.60947,-29.47019 24.11197,-29.47019c5.91636,0 11.49784,2.67911 14.28858,6.47451l0.22326,-3.014c0.11163,-1.22792 1.00467,-2.00933 2.34422,-2.00933l7.81406,0c1.45118,0 2.34422,0.78141 2.34422,2.45585l0,38.73544c0,1.56281 0.22326,2.67911 0.66978,3.23726c0.33489,0.33489 0.78141,0.44652 1.33955,0.44652l0.89304,0c1.33955,0 2.00933,0.44652 2.00933,1.8977l0,5.24659zm-18.41887,-15.18161l0,-21.54449c-2.23259,-3.23726 -6.8094,-5.6931 -11.05132,-5.6931c-6.8094,0 -12.61413,5.80473 -12.61413,17.52583c0,9.37688 3.57214,17.30257 11.83273,17.30257c5.46985,0 10.15828,-4.13029 11.83273,-7.59081zm65.35907,-36.39122c0,0.33489 0,0.66978 -0.11163,1.00467l-1.22792,7.92569c-0.11163,1.00467 -0.66978,1.45118 -1.56281,1.45118l-0.44652,0c-0.89304,-0.22326 -2.00933,-0.33489 -3.014,-0.33489c-3.7954,0 -7.92569,2.00933 -10.71643,5.35822l0,35.49818c0,1.78607 -0.78141,2.79074 -2.67911,2.79074l-8.14895,0c-1.78607,0 -2.67911,-0.89304 -2.67911,-2.79074l0,-34.8284l0,-13.73043c0,-2.23259 1.11629,-2.79074 2.79074,-2.79074l7.14429,0c1.78607,0 2.79074,0.55815 2.79074,2.12096l0.11163,3.57214c3.46051,-4.35355 7.25592,-7.14429 13.50717,-7.14429c0.89304,0 2.12096,0.22326 3.12563,0.44652c0.78141,0.22326 1.11629,0.55815 1.11629,1.45118zm48.27976,50.3449c0,1.11629 -0.55815,1.67444 -1.67444,2.12096c-3.46051,1.45118 -8.03732,2.56748 -12.5025,2.56748c-5.6931,0 -10.6048,-1.45118 -13.39554,-4.68844c-3.46051,-3.90703 -3.57214,-8.48384 -3.57214,-16.6328l0,-24.89338l-5.24659,0c-2.12096,0 -2.45585,-0.44652 -2.45585,-2.79074l0,-4.24192c0,-1.33955 0.66978,-2.23259 2.00933,-2.23259l5.6931,0l0,-12.16762c0,-1.8977 1.00467,-2.45585 2.79074,-2.67911l8.03732,-1.00467l0.55815,0c1.45118,0 2.12096,0.78141 2.12096,2.45585l0,13.39554l12.61413,0c1.33955,0 2.12096,0.44652 2.12096,1.8977l0,5.24659c0,1.33955 -0.89304,2.12096 -2.23259,2.12096l-12.5025,0l0,25.56316c0,3.34888 0.22326,5.80473 1.45118,7.59081c1.00467,1.45118 2.56748,2.34422 5.24659,2.34422c2.79074,0 5.13496,-0.66978 7.14429,-1.33955c0.44652,-0.11163 0.78141,-0.22326 1.11629,-0.22326c0.78141,0 1.22792,0.44652 1.45118,1.33955l1.11629,5.58147c0.11163,0.33489 0.11163,0.44652 0.11163,0.66978zm30.41904,-64.96837c0,4.35355 -3.7954,7.03266 -7.47918,7.03266s-7.59081,-2.45585 -7.59081,-6.92103s3.68377,-7.14429 7.59081,-7.14429c3.7954,0 7.47918,2.56748 7.47918,7.03266zm-0.66978,65.52652c0,2.00933 -0.89304,2.79074 -2.79074,2.79074l-7.81406,0c-2.00933,0 -2.90237,-0.78141 -2.90237,-2.79074l0,-48.78209c0,-1.8977 1.11629,-2.56748 2.90237,-2.56748l7.81406,0c1.78607,0 2.79074,0.55815 2.79074,2.56748l0,48.78209zm62.12182,-1.00467c0,0.89304 -0.55815,1.33955 -1.56281,1.78607c-5.35822,2.45585 -10.26991,3.34888 -16.18628,3.34888c-17.19094,0 -26.67945,-10.71643 -26.67945,-27.90737c0,-17.30257 10.38154,-29.02367 27.68412,-29.02367c5.02333,0 10.26991,1.00467 14.95835,3.12563c0.89304,0.44652 1.33955,0.66978 1.33955,1.56281c0,0.33489 -0.11163,1.00467 -0.22326,1.33955l-1.45118,5.91636c-0.22326,1.00467 -0.66978,1.56281 -1.33955,1.56281c-0.33489,0 -0.78141,-0.22326 -1.22792,-0.44652c-3.23726,-1.33955 -6.8094,-2.45585 -10.71643,-2.45585c-9.60014,0 -15.06998,6.8094 -15.06998,17.74909c0,10.71643 4.9117,18.08398 14.51183,18.08398c4.80007,0 7.81406,-0.89304 11.7211,-2.45585c0.33489,-0.11163 0.78141,-0.33489 1.11629,-0.33489c0.66978,0 1.11629,0.55815 1.33955,1.33955l1.45118,4.9117c0.22326,0.78141 0.33489,1.45118 0.33489,1.8977z" fill="#ffffff"/>
  <path id="svg_2" fill="#"/>
 </g>
</svg>